<?xml version="1.0" standalone="no"?>
<!DOCTYPE svg PUBLIC "-//W3C//DTD SVG 20010904//EN"
 "http://www.w3.org/TR/2001/REC-SVG-20010904/DTD/svg10.dtd">
<svg version="1.0" xmlns="http://www.w3.org/2000/svg"
 width="700.000000pt" height="700.000000pt" viewBox="0 0 700.000000 700.000000"
 preserveAspectRatio="xMidYMid meet">
<metadata>
Created by potrace 1.14, written by Peter Selinger 2001-2017
</metadata>
<g transform="translate(0.000000,700.000000) scale(0.100000,-0.100000)"
fill="#000000" stroke="none">
<path d="M1260 6984 c-41 -27 -460 -447 -476 -476 -21 -41 -21 -5975 0 -6016
16 -29 435 -449 476 -476 22 -15 205 -16 2238 -16 1902 0 2217 2 2240 14 32
18 465 452 481 483 8 16 11 845 11 3003 0 2569 -2 2985 -14 3008 -18 32 -452
465 -483 481 -16 8 -638 11 -2235 11 -2033 0 -2216 -1 -2238 -16z m4567 -386
l183 -183 0 -2442 0 -2443 -160 0 -160 0 0 729 c0 712 0 731 -21 797 -27 89
-104 170 -193 203 -58 21 -67 22 -460 19 -393 -3 -402 -3 -447 -26 -74 -36
-125 -87 -161 -160 l-33 -67 -3 -747 -3 -748 -103 0 -103 0 -5 93 c-8 156 -65
250 -186 309 l-67 33 -405 0 -405 0 -67 -33 c-121 -59 -178 -153 -186 -309
l-5 -93 -102 0 -102 0 -6 88 c-9 141 -54 232 -144 291 -91 60 -111 62 -540 59
l-388 -3 -63 -34 c-119 -65 -173 -158 -180 -309 l-4 -92 -162 2 -161 3 -3
2434 -2 2435 187 188 187 188 2146 0 2145 0 182 -182z m-395 -3567 l33 -29 3
-907 c2 -793 0 -910 -13 -938 -29 -62 -26 -62 -410 -65 -319 -2 -353 -1 -385
15 -74 38 -70 -16 -70 971 0 950 -1 929 51 966 21 14 67 16 391 16 l368 0 32
-29z m-3081 -1297 c53 -27 59 -58 59 -311 0 -355 29 -335 -455 -331 -384 3
-381 3 -410 64 -12 26 -15 79 -15 271 0 220 2 240 20 271 11 18 30 37 43 42
12 5 181 9 375 9 302 1 357 -1 383 -15z m1529 1 c58 -30 61 -50 58 -325 l-3
-250 -33 -32 -32 -33 -370 0 -370 0 -32 33 -33 32 -3 247 c-3 271 0 292 52
324 29 18 56 19 384 19 296 0 358 -2 382 -15z m-2568 -519 c6 -119 35 -183
113 -254 90 -83 100 -85 483 -90 450 -5 520 6 615 97 67 63 90 121 95 239 l4
102 108 0 107 0 6 -87 c3 -49 13 -110 22 -136 25 -69 101 -148 177 -183 l63
-29 395 0 395 0 63 29 c77 36 153 114 176 183 10 26 20 87 23 136 l6 87 102 0
102 0 7 -92 c11 -149 69 -248 179 -304 75 -39 172 -46 539 -42 394 5 398 6
494 102 73 73 93 124 101 249 l6 87 163 0 164 0 0 -357 0 -358 -187 -187 -188
-188 -2145 0 -2145 0 -187 187 -188 188 0 357 0 358 164 0 163 0 5 -94z"/>
<path d="M2410 6450 l0 -110 873 2 872 3 3 108 3 107 -876 0 -875 0 0 -110z"/>
<path d="M4372 6453 l3 -108 108 -3 107 -3 0 111 0 110 -110 0 -111 0 3 -107z"/>
<path d="M1587 6120 c-104 -18 -199 -91 -246 -190 l-26 -55 0 -405 0 -405 26
-55 c37 -80 81 -125 157 -162 l67 -33 1935 0 1935 0 55 26 c80 37 125 81 162
157 l33 67 0 405 0 405 -26 55 c-49 104 -140 171 -255 190 -72 12 -3747 11
-3817 0z m3819 -226 c63 -30 64 -35 64 -424 0 -385 -1 -395 -60 -425 -44 -23
-3776 -23 -3820 0 -59 30 -60 40 -60 425 0 388 1 393 62 423 30 15 197 17
1906 17 1714 0 1877 -1 1908 -16z"/>
<path d="M1750 5470 l0 -110 110 0 110 0 0 110 0 110 -110 0 -110 0 0 -110z"/>
<path d="M2190 5470 l0 -110 1530 0 1530 0 0 110 0 110 -1530 0 -1530 0 0
-110z"/>
<path d="M1521 4572 c-63 -24 -153 -110 -182 -174 -24 -52 -24 -59 -24 -353
l0 -300 30 -59 c33 -65 93 -124 163 -158 46 -23 53 -23 441 -26 439 -3 454 -1
542 62 52 38 103 110 122 170 8 29 12 127 12 321 l0 280 -29 62 c-31 69 -88
128 -158 165 -43 23 -45 23 -458 25 -369 2 -420 0 -459 -15z m808 -205 c19 -7
44 -25 55 -40 20 -27 21 -43 24 -260 4 -263 -2 -297 -51 -327 -30 -19 -53 -20
-392 -20 -395 0 -389 -1 -420 60 -12 23 -15 76 -15 274 l0 245 30 35 c17 19
41 37 53 39 12 2 171 5 352 5 232 1 340 -3 364 -11z"/>
<path d="M3080 4581 c-95 -30 -186 -116 -217 -204 -16 -46 -18 -87 -18 -337
l0 -285 33 -67 c36 -73 86 -123 161 -160 46 -23 48 -23 461 -23 413 0 415 0
461 23 75 37 125 87 161 160 l33 67 0 285 c0 250 -2 291 -18 337 -23 66 -94
146 -161 181 l-51 27 -410 2 c-225 1 -421 -2 -435 -6z m783 -215 c18 -7 41
-23 52 -36 19 -21 20 -38 23 -274 2 -237 1 -253 -18 -284 -11 -18 -32 -37 -46
-42 -15 -6 -172 -10 -374 -10 -202 0 -359 4 -374 10 -14 5 -35 24 -46 42 -19
31 -20 47 -18 284 3 236 4 253 23 274 42 47 60 49 413 50 259 0 340 -3 365
-14z"/>
<path d="M4599 4576 c-90 -32 -154 -92 -196 -181 l-28 -60 0 -290 0 -290 26
-55 c36 -77 77 -121 151 -161 l63 -34 415 0 415 0 57 28 c67 33 121 90 157
166 l26 56 0 295 c0 281 -1 297 -22 342 -31 69 -99 137 -168 169 l-60 29 -400
0 c-301 -1 -409 -4 -436 -14z m833 -234 l33 -32 3 -247 c3 -264 0 -287 -46
-323 -23 -19 -42 -20 -384 -20 -306 0 -363 2 -389 16 -53 27 -59 58 -59 317 0
227 1 235 23 268 38 56 55 59 439 56 l348 -2 32 -33z"/>
<path d="M1523 3259 c-70 -27 -146 -97 -180 -167 l-28 -57 0 -300 c0 -286 1
-302 22 -347 29 -63 96 -134 158 -166 l50 -27 406 -3 c390 -3 408 -2 461 18
78 29 141 87 180 168 l33 67 4 242 c4 276 -5 353 -50 431 -16 28 -52 70 -80
92 -86 68 -103 70 -538 69 -361 0 -389 -1 -438 -20z m836 -215 c45 -32 51 -67
51 -309 0 -242 -6 -277 -51 -309 -21 -14 -67 -16 -391 -16 l-368 0 -32 29 -33
29 0 267 0 267 33 29 32 29 368 0 c324 0 370 -2 391 -16z"/>
<path d="M3073 3266 c-91 -29 -157 -89 -200 -181 l-28 -60 0 -285 c0 -255 2
-291 19 -340 26 -75 110 -159 189 -188 56 -21 72 -22 447 -22 368 0 392 1 444
21 77 28 146 94 182 171 l29 63 0 290 0 290 -26 56 c-36 76 -90 133 -157 166
l-57 28 -400 2 c-309 2 -409 -1 -442 -11z m815 -222 c48 -33 52 -57 52 -309 0
-252 -4 -276 -52 -309 -34 -24 -742 -24 -776 0 -48 33 -52 57 -52 309 0 190 3
242 15 265 32 61 25 60 425 60 315 0 369 -2 388 -16z"/>
</g>
</svg>
